<svg width="144" height="22" viewBox="0 0 144 22" fill="none" xmlns="http://www.w3.org/2000/svg">
<path d="M0.33 16.65H5.91C6.73 16.65 7.14 16.43 7.14 15.99C7.14 15.51 6.73 14.91 5.91 14.19L2.19 9.84C1.63 9.16 1.18 8.43 0.84 7.65C0.5 6.87 0.33 6.12 0.33 5.4C0.33 4.3 0.71 3.38 1.47 2.64C2.33 1.82 3.6 1.33 5.28 1.17H11.49L12.72 5.49H7.77C6.81 5.49 6.33 5.76 6.33 6.3C6.33 6.9 7.02 7.87 8.4 9.21L12.12 13.56C12.6 14.14 12.96 14.72 13.2 15.3C13.44 15.88 13.56 16.41 13.56 16.89C13.56 18.05 13.02 19.05 11.94 19.89C10.98 20.63 10 21 9 21H1.56L0.33 16.65ZM14.8905 12.33C14.8905 9.79 15.4305 8.06 16.5105 7.14C17.3105 6.46 18.6305 6.12 20.4705 6.12H27.9105V21H22.9605C20.2005 21 18.0805 19.94 16.6005 17.82C15.4605 16.18 14.8905 14.35 14.8905 12.33ZM21.7005 10.47C21.0805 10.55 20.6105 10.81 20.2905 11.25C19.9705 11.69 19.8105 12.21 19.8105 12.81C19.8105 13.69 20.1005 14.56 20.6805 15.42C21.2605 16.28 21.8905 16.71 22.5705 16.71L22.9605 16.65V10.47H21.7005ZM32.5411 16.65C33.0811 16.65 33.3511 16.59 33.3511 16.47L33.1711 16.05L30.6811 12.93C30.3411 12.47 30.0511 11.93 29.8111 11.31C29.5711 10.67 29.4511 10.04 29.4511 9.42C29.4511 8.46 29.7211 7.7 30.2611 7.14C30.9011 6.46 31.8711 6.12 33.1711 6.12H37.5511L38.7511 10.47H36.2611C35.8211 10.47 35.6011 10.63 35.6011 10.95C35.6011 11.15 35.7111 11.44 35.9311 11.82C36.1111 12.08 36.2211 12.25 36.2611 12.33L38.1211 14.79C38.7411 15.65 39.0511 16.51 39.0511 17.37C39.0511 18.39 38.6611 19.25 37.8811 19.95C37.1011 20.65 36.1511 21 35.0311 21H30.6811L29.4511 16.65H32.5411ZM41.5209 16.05V10.47H40.2909V6.12H41.5209L41.4909 2.88L46.5009 0.959999V6.12H48.9609V10.47H46.5009V14.79C46.5009 16.03 47.1209 16.65 48.3609 16.65H49.5909L48.3609 21H45.2409C43.8409 21 42.8409 20.49 42.2409 19.47C41.7609 18.65 41.5209 17.51 41.5209 16.05ZM58.0608 10.23C56.7408 10.23 56.0808 11.13 56.0808 12.93C56.0808 13.71 56.2708 14.58 56.6508 15.54C57.0508 16.5 57.5308 16.98 58.0908 16.98C58.6508 16.98 59.0908 16.47 59.4108 15.45C59.6708 14.63 59.8008 13.79 59.8008 12.93C59.8008 11.13 59.2208 10.23 58.0608 10.23ZM57.9408 5.97C60.3408 5.97 62.0808 6.39 63.1608 7.23C64.2408 8.05 64.7808 9.54 64.7808 11.7C64.7808 13.62 64.2908 15.54 63.3108 17.46C62.0108 19.98 60.2608 21.24 58.0608 21.24C55.8408 21.24 54.0608 19.99 52.7208 17.49C51.6608 15.53 51.1308 13.6 51.1308 11.7C51.1308 9.54 51.6608 8.05 52.7208 7.23C53.7808 6.39 55.5208 5.97 57.9408 5.97ZM75.9155 21V6.12H80.8955V16.65H84.6155C85.7155 16.65 86.2655 16.38 86.2655 15.84C86.2655 15.34 85.7955 14.58 84.8555 13.56C84.0155 12.66 82.8955 11.63 81.4955 10.47C82.2755 9.97 83.0655 9.34 83.8655 8.58C84.8455 7.64 85.3355 6.93 85.3355 6.45C85.3355 6.19 85.1655 5.97 84.8255 5.79C84.5055 5.59 84.0155 5.49 83.3555 5.49H74.6855L75.9155 1.17H84.6155C86.7955 1.17 88.3655 1.51 89.3255 2.19C90.3055 2.85 90.7955 3.95 90.7955 5.49C90.7955 6.65 90.5155 7.63 89.9555 8.43C89.4955 9.09 88.7455 9.77 87.7055 10.47C89.1455 11.55 90.1855 12.5 90.8255 13.32C91.6455 14.38 92.0555 15.49 92.0555 16.65C92.0555 18.43 91.5655 19.62 90.5855 20.22C89.7455 20.74 88.1655 21 85.8455 21H75.9155ZM93.582 12.33C93.582 9.79 94.122 8.06 95.202 7.14C96.002 6.46 97.322 6.12 99.162 6.12H106.602V21H101.652C98.892 21 96.772 19.94 95.292 17.82C94.152 16.18 93.582 14.35 93.582 12.33ZM100.392 10.47C99.772 10.55 99.302 10.81 98.982 11.25C98.662 11.69 98.502 12.21 98.502 12.81C98.502 13.69 98.792 14.56 99.372 15.42C99.952 16.28 100.582 16.71 101.262 16.71L101.652 16.65V10.47H100.392ZM108.143 21L112.493 10.47H108.143L109.373 6.12H119.303L114.953 16.65H119.303L118.073 21H108.143ZM120.828 12.33C120.828 9.79 121.368 8.06 122.448 7.14C123.248 6.46 124.568 6.12 126.408 6.12H133.848V21H128.898C126.138 21 124.018 19.94 122.538 17.82C121.398 16.18 120.828 14.35 120.828 12.33ZM127.638 10.47C127.018 10.55 126.548 10.81 126.228 11.25C125.908 11.69 125.748 12.21 125.748 12.81C125.748 13.69 126.038 14.56 126.618 15.42C127.198 16.28 127.828 16.71 128.508 16.71L128.898 16.65V10.47H127.638ZM135.389 21V6.12H140.339V6.75C140.679 6.41 141.129 6.12 141.689 5.88C142.269 5.62 142.859 5.49 143.459 5.49V9.84C142.759 9.88 142.239 9.95 141.899 10.05C140.859 10.35 140.339 10.9 140.339 11.7V21H135.389Z" fill="url(#paint0_angular_4_2)"/>
<defs>
<radialGradient id="paint0_angular_4_2" cx="0" cy="0" r="1" gradientUnits="userSpaceOnUse" gradientTransform="translate(72.5 11.5) rotate(90) scale(15.5 72.5)">
<stop offset="0.260417" stop-color="#2D529B"/>
<stop offset="0.645833" stop-color="#0E49DF"/>
<stop offset="0.770833" stop-color="#308ED3" stop-opacity="0.837642"/>
<stop offset="0.859375" stop-color="#0E94DF" stop-opacity="0.92"/>
</radialGradient>
</defs>
</svg>
